# xmcd CD database file
#
# Track frame offsets:
#	150
#	20409
#	45449
#	69415
#	87383
#	100737
#	142628
#	160441
#	177934
#	202563
#	219746
#	236286
#
# Disc length: 3310 seconds
#
# Revision: 0
# Processed by: cddbd v1.5.1PL2 Copyright (c) Steve Scherf et al.
# Submitted via: CDex 1.51
#
DISCID=900cec0c
DTITLE=The Hoodoomen - Keep on dream
DYEAR=2002
DGENRE=Blues
TTITLE0=KEEP ON DREAMING
TTITLE1=YOU DON4T HAVE TO GO
TTITLE2=MY GIRL JOSEPHINE
TTITLE3=HOODOOMEN THEME
TTITLE4=LET4S GO GIRL
TTITLE5=I MET YOU IN A DREAM
TTITLE6=TWO BONES AND A PICK
TTITLE7=CRAZY MIXED WORLD
TTITLE8=LIKE A COYOTE
TTITLE9=KNUCKLEHEAD
TTITLE10=OH! LOUISE
TTITLE11=CONGO MANBO
EXTD=YEAR: 2002
EXTT0=
EXTT1=
EXTT2=
EXTT3=
EXTT4=
EXTT5=
EXTT6=
EXTT7=
EXTT8=
EXTT9=
EXTT10=
EXTT11=
PLAYORDER=
